<?xml version="1.0" standalone="no"?>
<!DOCTYPE svg PUBLIC "-//W3C//DTD SVG 20010904//EN"
 "http://www.w3.org/TR/2001/REC-SVG-20010904/DTD/svg10.dtd">
<svg version="1.0" xmlns="http://www.w3.org/2000/svg"
 width="225.000000pt" height="225.000000pt" viewBox="0 0 225.000000 225.000000"
 preserveAspectRatio="xMidYMid meet">

<g transform="translate(0.000000,225.000000) scale(0.100000,-0.100000)"
fill="#000000" stroke="none">
<path d="M1800 2133 c-371 -25 -642 -87 -855 -193 -136 -68 -225 -135 -290
-218 -58 -74 -147 -253 -181 -367 -25 -80 -28 -106 -28 -240 -1 -139 1 -156
27 -230 33 -93 86 -188 151 -266 25 -31 46 -62 46 -69 0 -28 -69 -138 -122
-195 -81 -87 -149 -119 -253 -119 -44 0 -103 2 -132 4 -99 9 -97 -47 4 -96 49
-25 70 -29 138 -29 102 0 169 31 266 122 51 48 169 202 185 241 0 1 48 -20
105 -47 298 -142 590 -160 802 -49 86 45 211 171 270 273 160 277 237 700 224
1232 -3 128 -8 237 -12 243 -6 9 -225 12 -345 3z m-270 -470 c1 -53 9 -53 75
-3 102 77 244 149 275 138 5 -2 -56 -55 -135 -118 -79 -63 -144 -118 -144
-121 -1 -3 58 -28 129 -54 72 -26 129 -49 127 -51 -2 -2 -41 3 -88 10 -46 8
-112 18 -145 21 l-61 7 -97 -134 -97 -133 113 -7 c109 -6 209 -29 267 -62 20
-11 -5 -12 -170 -8 -129 3 -213 1 -251 -7 l-57 -12 -90 -140 c-50 -76 -91
-141 -91 -143 0 -2 69 -6 153 -9 157 -6 240 -21 307 -58 l35 -20 -30 6 c-145
25 -331 31 -433 15 -102 -17 -141 -41 -210 -129 -84 -105 -95 -114 -145 -115
-32 -1 -42 3 -41 15 1 9 41 68 89 133 79 105 90 124 106 194 35 146 19 331
-41 475 -27 65 -28 68 -7 54 33 -22 85 -103 102 -160 22 -75 34 -211 25 -297
-4 -41 -6 -76 -5 -78 2 -2 58 72 125 163 l122 167 -12 66 c-17 101 -58 238
-96 321 -19 41 -33 76 -30 78 2 2 30 -25 63 -61 73 -78 111 -151 127 -247 l12
-72 53 64 c30 35 67 91 82 124 28 58 29 66 30 220 l1 160 29 -85 c15 -47 28
-95 29 -107z"/>
</g>
</svg>
