<?xml version="1.0" standalone="no"?>
<!DOCTYPE svg PUBLIC "-//W3C//DTD SVG 20010904//EN"
 "http://www.w3.org/TR/2001/REC-SVG-20010904/DTD/svg10.dtd">
<svg version="1.0" xmlns="http://www.w3.org/2000/svg"
 width="264.000000pt" height="191.000000pt" viewBox="0 0 264.000000 191.000000"
 preserveAspectRatio="xMidYMid meet">

<g transform="translate(0.000000,191.000000) scale(0.100000,-0.100000)"
fill="#000000" stroke="none">
<path d="M82 1890 c-33 -15 -47 -29 -63 -64 -19 -43 -19 -66 -17 -720 3 -664
3 -675 24 -702 11 -15 33 -37 48 -48 27 -21 39 -21 658 -24 l630 -3 -6 28 c-3
15 -9 43 -12 60 l-7 33 -564 0 c-318 0 -563 4 -561 9 5 13 678 641 688 641 4
0 60 -43 125 -95 86 -70 124 -95 145 -95 21 0 56 24 140 95 61 52 115 95 118
95 3 0 17 -11 31 -24 l26 -24 47 48 47 48 -24 22 -24 22 322 253 322 252 3
-198 c2 -186 4 -199 21 -199 10 0 37 -7 60 -15 l41 -14 0 268 c0 262 -1 269
-23 302 -49 74 27 69 -1122 69 -999 0 -1031 -1 -1073 -20z m1963 -119 c-11
-10 -213 -175 -448 -366 -300 -243 -431 -344 -440 -338 -327 251 -889 683
-910 700 l-29 23 923 0 c903 0 923 0 904 -19z m-1587 -327 c180 -135 327 -249
327 -254 0 -10 -650 -620 -659 -620 -4 0 -6 252 -6 560 0 308 2 560 5 560 3 0
153 -111 333 -246z"/>
<path d="M1900 1164 c-116 -31 -241 -109 -307 -192 -230 -286 -159 -700 152
-887 97 -58 182 -80 310 -79 115 1 161 12 260 61 146 72 260 213 306 378 17
61 17 233 0 295 -58 207 -231 377 -432 425 -80 19 -217 18 -289 -1z m420 -566
c0 -3 -59 -68 -132 -143 l-131 -136 -40 40 -40 39 62 69 61 68 -165 3 -165 2
0 55 0 55 165 0 c91 0 165 4 165 8 0 4 -27 34 -59 66 l-60 59 42 38 42 38 128
-127 c70 -70 127 -130 127 -134z"/>
</g>
</svg>
