<?xml version="1.0" standalone="no"?>
<!DOCTYPE svg PUBLIC "-//W3C//DTD SVG 20010904//EN"
 "http://www.w3.org/TR/2001/REC-SVG-20010904/DTD/svg10.dtd">
<svg version="1.0" xmlns="http://www.w3.org/2000/svg"
 width="800.000000pt" height="800.000000pt" viewBox="0 0 800.000000 800.000000"
 preserveAspectRatio="xMidYMid meet">

<g transform="translate(0.000000,800.000000) scale(0.100000,-0.100000)"
fill="#000000" stroke="none">
<path d="M4807 7989 c-234 -27 -448 -100 -644 -221 -503 -307 -794 -880 -743
-1461 19 -218 67 -390 165 -592 191 -394 596 -824 1261 -1342 50 -39 100 -74
112 -77 35 -12 81 17 273 171 465 373 813 724 1014 1024 75 111 186 341 223
459 58 185 66 246 67 480 0 188 -3 228 -23 320 -76 346 -253 645 -516 872 -97
84 -171 133 -306 202 -134 69 -208 97 -345 129 -185 44 -369 56 -538 36z m286
-784 c181 -27 306 -92 447 -234 71 -71 94 -102 132 -181 68 -138 82 -200 83
-355 0 -105 -5 -145 -23 -208 -82 -285 -311 -499 -597 -558 -174 -36 -329 -17
-490 61 -204 99 -336 248 -411 465 -26 73 -28 92 -29 230 0 169 11 226 69 347
92 190 257 335 458 402 68 23 165 41 238 45 14 0 69 -6 123 -14z"/>
<path d="M6610 4797 c-132 -312 -312 -623 -485 -837 -34 -41 -64 -80 -68 -87
-12 -20 145 -66 209 -61 30 3 54 3 54 2 0 -15 -57 -149 -100 -234 -85 -171
-214 -362 -357 -532 l-73 -87 38 -10 c177 -46 391 -28 573 48 l69 29 2 -266 3
-266 183 -3 182 -4 0 270 0 270 63 -28 c141 -64 325 -89 479 -66 54 8 105 18
113 22 10 6 -4 30 -56 93 -193 235 -358 504 -435 706 l-23 61 55 -5 c42 -3 75
2 139 23 l83 27 -83 103 c-181 224 -364 543 -485 842 l-37 92 -43 -102z"/>
<path d="M3955 3980 c-804 -164 -1290 -296 -1648 -447 l-107 -45 57 -107 c188
-352 310 -518 660 -903 l143 -157 -182 -94 c-101 -52 -199 -103 -219 -113
l-37 -19 54 -84 c29 -46 55 -85 56 -87 2 -2 127 -32 278 -68 764 -182 863
-210 1013 -288 91 -47 127 -88 127 -142 0 -49 -19 -83 -74 -134 -66 -61 -145
-109 -522 -318 -944 -523 -1297 -709 -1804 -951 l-45 -22 2147 0 2147 -1 148
116 c301 237 504 414 719 629 326 325 432 481 464 677 35 224 -115 435 -417
587 -154 77 -365 154 -608 220 -427 118 -713 168 -1925 336 -721 100 -1078
175 -1233 257 -60 32 -97 78 -97 120 0 67 101 166 315 310 286 193 705 350
1664 623 278 80 549 158 601 174 l95 30 -645 -1 -645 0 -480 -98z"/>
<path d="M1585 3693 c-61 -152 -214 -464 -305 -622 -93 -162 -234 -370 -335
-495 -44 -54 -88 -109 -98 -122 l-17 -22 57 -22 c104 -39 174 -53 240 -47 35
2 63 3 63 0 0 -15 -78 -200 -124 -294 -109 -221 -266 -458 -459 -694 -75 -91
-111 -142 -103 -147 17 -10 169 -36 251 -43 156 -14 403 31 553 100 41 19 76
35 78 35 2 0 4 -160 4 -355 l0 -355 245 0 245 0 0 354 0 355 63 -29 c74 -34
208 -74 297 -91 131 -24 364 -14 502 22 l38 10 -84 98 c-270 319 -484 666
-602 979 -13 34 -24 64 -24 67 0 2 12 0 26 -5 55 -21 149 -9 271 37 l72 27
-53 61 c-83 95 -214 272 -302 412 -143 224 -328 587 -419 821 l-32 83 -48
-118z"/>
</g>
</svg>
