<svg xmlns="http://www.w3.org/2000/svg" version="1.1" xmlns:xlink="http://www.w3.org/1999/xlink" xmlns:svgjs="http://svgjs.dev/svgjs" width="1440" height="560" preserveAspectRatio="none" viewBox="0 0 1440 560"><g mask="url(&quot;#SvgjsMask1033&quot;)" fill="none"><rect width="1440" height="560" x="0" y="0" fill="rgba(250, 252, 253, 1)"></rect><path d="M0,493.249C116.236,499.651,233.633,576.181,340.245,529.431C448.893,481.788,500.114,358.801,550.999,251.633C602.521,143.124,657.284,26.734,634.976,-91.296C612.964,-207.756,514.87,-289.533,432.591,-374.842C354.415,-455.898,279.533,-554.502,168.747,-574.7C60.352,-594.462,-41.727,-527.677,-140.757,-479.374C-225.42,-438.079,-288.755,-372.262,-363.587,-315.05C-460.751,-240.764,-602.381,-207.09,-646.236,-92.915C-690.886,23.332,-648.671,159.815,-587.684,268.386C-529.048,372.771,-428.801,450.447,-316.981,493.232C-216.257,531.771,-107.682,487.318,0,493.249" fill="#e8f1f6"></path><path d="M1440 1051.715C1556.165 1069.339 1676.612 1143.688 1782.814 1093.429 1889.261 1043.054 1911.255 904.2470000000001 1968.769 801.481 2032.097 688.326 2160.4120000000003 587.344 2137.476 459.718 2114.442 331.546 1949.52 290.642 1859.974 196.08999999999997 1775.771 107.18 1746.841-51.089000000000055 1627.545-78.71900000000005 1507.357-106.55499999999995 1408.831 18.317000000000007 1294.705 65.17000000000002 1195.329 105.96699999999998 1077.498 104.32400000000001 1000.135 178.85500000000002 919.971 256.085 896.586 370.352 866.646 477.56399999999996 832.59 599.515 752.036 735.4490000000001 813.843 845.956 876.387 957.78 1036.372 958.653 1158.095 998.652 1250.812 1029.1190000000001 1343.509 1037.076 1440 1051.715" fill="#ffffff"></path></g><defs><mask id="SvgjsMask1033"><rect width="1440" height="560" fill="#ffffff"></rect></mask></defs></svg>