<?xml version="1.0" standalone="no"?>
<!DOCTYPE svg PUBLIC "-//W3C//DTD SVG 20010904//EN"
 "http://www.w3.org/TR/2001/REC-SVG-20010904/DTD/svg10.dtd">
<svg version="1.0" xmlns="http://www.w3.org/2000/svg"
 width="225.000000pt" height="225.000000pt" viewBox="0 0 225.000000 225.000000"
 preserveAspectRatio="xMidYMid meet">

<g transform="translate(0.000000,225.000000) scale(0.100000,-0.100000)"
fill="#000000" stroke="none">
<path d="M962 1486 c-9 -20 -20 -25 -74 -31 -154 -16 -309 -83 -418 -180 -22
-20 -40 -23 -138 -28 -126 -6 -161 -20 -199 -77 -33 -48 -44 -100 -41 -193 l3
-82 111 -3 112 -3 6 35 c9 47 57 109 99 129 43 21 118 22 155 3 50 -26 102
-101 102 -146 0 -20 3 -20 460 -20 l460 0 0 27 c0 41 44 106 88 131 106 59
229 3 262 -120 l11 -38 93 0 c106 0 106 -1 106 93 0 155 -151 241 -465 262
l-100 7 -90 58 c-146 95 -240 130 -422 156 -20 3 -34 12 -38 24 -10 31 -68 28
-83 -4z m18 -151 l0 -85 -172 1 c-95 1 -183 4 -196 7 -23 7 -23 7 10 39 60 58
223 121 316 122 l42 1 0 -85z m244 55 c69 -22 173 -86 194 -120 l12 -20 -197
2 -198 3 -3 84 -3 84 65 -7 c36 -4 94 -15 130 -26z m-344 -280 l0 -40 -40 0
-40 0 0 40 0 40 40 0 40 0 0 -40z m180 0 l0 -40 -40 0 -40 0 0 40 0 40 40 0
40 0 0 -40z m180 0 l0 -40 45 0 45 0 0 -41 0 -40 -42 3 c-42 3 -43 4 -46 41
-3 36 -4 37 -43 37 -39 0 -39 0 -39 40 l0 40 40 0 40 0 0 -40z m180 0 l0 -40
-40 0 -40 0 0 40 0 40 40 0 40 0 0 -40z m-450 -80 l0 -40 -40 0 -40 0 0 40 0
40 40 0 40 0 0 -40z m180 0 l0 -40 -40 0 -40 0 0 40 0 40 40 0 40 0 0 -40z"/>
<path d="M434 1031 c-55 -24 -93 -106 -79 -170 16 -76 112 -134 183 -113 117
35 149 177 58 261 -20 19 -39 25 -84 28 -31 1 -66 -1 -78 -6z m134 -77 c49
-56 6 -154 -68 -154 -44 0 -90 47 -90 92 0 88 100 127 158 62z"/>
<path d="M1693 1021 c-42 -26 -63 -69 -63 -126 0 -115 101 -182 204 -137 59
27 86 70 86 140 0 47 -4 57 -39 94 -35 38 -43 42 -97 45 -46 3 -66 0 -91 -16z
m150 -71 c15 -17 27 -39 27 -51 0 -34 -28 -76 -59 -89 -80 -33 -157 50 -116
125 33 62 99 69 148 15z"/>
</g>
</svg>
