<?xml version="1.0" standalone="no"?>
<!DOCTYPE svg PUBLIC "-//W3C//DTD SVG 20010904//EN"
 "http://www.w3.org/TR/2001/REC-SVG-20010904/DTD/svg10.dtd">
<svg version="1.0" xmlns="http://www.w3.org/2000/svg"
 width="800.000000pt" height="800.000000pt" viewBox="0 0 800.000000 800.000000"
 preserveAspectRatio="xMidYMid meet">

<g transform="translate(0.000000,800.000000) scale(0.100000,-0.100000)"
fill="#000000" stroke="none">
<path d="M6190 7752 c-102 -27 -1470 -387 -3040 -801 -1570 -413 -2880 -761
-2910 -773 -38 -15 -75 -42 -121 -87 -87 -87 -113 -151 -113 -271 1 -85 120
-547 905 -3499 33 -123 71 -246 86 -273 33 -61 104 -128 174 -165 49 -25 63
-28 159 -28 l105 0 1054 278 c580 154 1060 281 1068 284 11 4 13 -101 13 -618
0 -685 2 -702 60 -828 155 -331 639 -588 1330 -705 624 -106 1337 -86 1919 54
260 63 550 178 714 283 157 101 281 229 341 351 69 140 67 96 64 1204 l-3 997
-23 65 c-37 103 -103 199 -200 291 l-87 84 32 54 c38 64 57 147 50 216 -6 51
-920 3536 -959 3655 -26 82 -53 124 -112 178 -70 65 -144 95 -241 99 -70 3
-103 -3 -265 -45z m114 -580 c16 -51 185 -687 183 -689 -7 -7 -1861 -493
-1870 -490 -16 5 -196 701 -183 706 19 8 1840 489 1853 490 6 1 14 -7 17 -17z
m705 -2384 c6 -24 28 -108 49 -188 l39 -145 -599 -158 c-330 -87 -601 -157
-603 -155 -10 11 -94 363 -88 369 6 5 1156 315 1184 318 4 1 12 -18 18 -41z
m-1549 -372 c0 -2 21 -82 46 -176 25 -95 43 -174 40 -177 -3 -3 -63 -9 -133
-14 -365 -27 -694 -89 -975 -184 -74 -25 -104 -32 -109 -23 -9 14 -71 259 -67
263 5 4 1172 313 1186 314 6 1 12 -1 12 -3z m-1497 -572 l45 -171 -52 -30
c-39 -23 -183 -65 -594 -173 -298 -79 -545 -141 -548 -138 -8 9 -95 350 -91
361 2 8 1187 328 1194 323 0 0 21 -78 46 -172z m2100 -104 c554 -35 1021 -162
1297 -350 106 -73 164 -134 205 -216 24 -50 29 -71 29 -134 0 -89 -20 -136
-92 -223 -67 -81 -147 -138 -297 -212 -363 -179 -833 -267 -1420 -267 -653 0
-1200 119 -1550 337 -94 58 -198 167 -231 242 -125 279 187 563 786 713 395
99 838 138 1273 110z m-3638 -315 c27 -102 46 -187 44 -189 -2 -2 -265 -72
-584 -155 -319 -84 -587 -154 -596 -157 -13 -4 -24 28 -63 173 -25 98 -46 183
-46 188 0 7 1140 318 1191 324 3 1 28 -82 54 -184z m1639 -994 c146 -199 603
-386 1111 -455 349 -48 851 -50 1190 -5 356 47 716 156 920 277 163 96 294
242 295 326 0 14 3 17 11 9 7 -7 9 -95 7 -274 l-3 -264 -28 -57 c-96 -195
-385 -361 -823 -472 -114 -29 -351 -68 -524 -88 -153 -17 -717 -17 -870 0
-406 45 -753 134 -995 255 -178 88 -288 185 -347 305 l-33 67 -3 243 c-2 134
-1 255 3 270 6 24 8 22 29 -30 13 -31 40 -79 60 -107z m-6 -858 c161 -204 520
-363 1012 -449 414 -72 1016 -72 1430 0 329 58 642 164 821 278 118 76 229
198 254 282 22 71 27 21 23 -251 l-3 -258 -29 -60 c-111 -226 -514 -423 -1054
-515 -260 -44 -404 -54 -732 -54 -262 0 -346 4 -495 22 -265 32 -442 69 -630
129 -348 112 -564 252 -648 422 l-32 66 -3 243 c-2 134 -1 255 3 270 6 24 8
22 29 -30 13 -31 37 -74 54 -95z"/>
</g>
</svg>
